<?xml version="1.0" encoding="utf-8"?>
<svg version="1.1" xmlns="http://www.w3.org/2000/svg"
	 viewBox="0 0 960 160" xml:space="preserve">
<path fill="#FDB70F" d="M371.6021729,20.7468262l-0.5762329-2.9501953h-3.0050049h-32.2421875h-3.0057983l-0.5751953,2.9501953
	l-13.8272095,70.8258667V80.4460449v-3.6484375h-3.6483765h-14.5566406V21.4450073v-3.6483765h-3.6483765h-20.8369751h-3.6494141
	v3.6483765v78.085022v3.6483765h3.6494141h39.0419922h1.3827515h2.265625h2.1641846h21.7138062h3.1426392l0.4657593-3.1073608
	l1.5078125-10.0527954h9.069397l1.5078125,10.0527954l0.4667969,3.1073608h3.1416016h21.7147827h4.4296265l-0.8486328-4.3475952
	L371.6021729,20.7468262z M314.722168,99.5300293h-39.0419922v-78.085022h20.8369751v59.0010376h18.2050171V99.5300293z
	 M361.550354,99.5300293l-1.9736328-13.1602173h-15.3535767l-1.9746094,13.1602173H320.534729l15.2440186-78.085022h32.2421875
	l15.2442017,78.085022H361.550354z M106.8979492,39.869812c-6.7987671,0-11.4052124,5.9219971-11.4052124,20.069397
	s4.6064453,20.0692139,11.4052124,20.0692139c6.7998047,0,11.4052124-5.921814,11.4052124-20.0692139
	S113.6977539,39.869812,106.8979492,39.869812z M106.8979492,76.3600464c-6.4111938,0-7.7567749-8.930603-7.7567749-16.4208374
	c0-7.4911499,1.3455811-16.4209595,7.7567749-16.4209595s7.7567749,8.9298096,7.7567749,16.4209595
	C114.6547241,67.4294434,113.3091431,76.3600464,106.8979492,76.3600464z M351.7895508,36.579834l-4.9346313,32.2412109h10.0898438
	l-4.9354248-32.2412109H351.7895508z M351.1049194,65.173645l0.7950439-5.1954346l0.7947998,5.1954346H351.1049194z
	 M143.4477539,60.4694214c-0.0634155-12.2879639-2.8651733-22.7412109-8.1026001-30.2304077
	c-3.0498047-4.3603516-6.9188232-7.7431641-11.5-10.053772c-4.8759766-2.4580078-10.5770264-3.7050171-16.9472046-3.7050171
	s-12.071167,1.2470093-16.9472046,3.7050171c-4.5811768,2.3106079-8.4501953,5.6934204-11.4989624,10.053772
	c-5.2374268,7.4891968-8.0392456,17.9424438-8.1026001,30.2294312c-0.0732422,14.9776001,3.899353,26.9248047,11.4881592,34.5498047
	c6.2568359,6.2871704,14.6885986,9.4746094,25.0606079,9.4746094s18.803772-3.187439,25.0606079-9.4746094
	C139.5473633,87.3932495,143.5199585,75.4460449,143.4477539,60.4694214z M106.8979492,100.8444214
	c-23.468811,0-33.0097656-17.765564-32.9003906-40.3573608c0.109375-21.2754517,8.7733765-40.3574219,32.9003906-40.3574219
	s32.7910156,19.0819702,32.9003906,40.3574219C139.9077759,83.0788574,130.3667603,100.8444214,106.8979492,100.8444214z
	 M237.5141602,17.7966309h-27.1972046h-3.6483765v3.6483765v78.085022v3.6483765h3.6483765h20.836792h3.6486206v-3.6483765
	V77.8444214h2.2733765c9.2391968,0,17.2050171-2.7362061,23.0390015-7.9101563
	c6.1124268-5.4228516,9.3427734-13.0498047,9.3427734-22.0586548
	C269.4575195,29.3220215,257.2183228,17.7966309,237.5141602,17.7966309z M237.0757446,74.1960449h-5.9219971v25.3339844h-20.836792
	v-78.085022h27.1972046c17.437561,0,28.2949829,9.6514282,28.2949829,26.430603
	C265.8091431,64.3258057,253.7455444,74.1960449,237.0757446,74.1960449z M233.347168,38.9918213h-2.1934204V56.649231h2.522583
	c5.4833984,0,9.9794312-2.303772,9.9794312-8.6641846C243.6557617,40.9666138,238.8305664,38.9918213,233.347168,38.9918213z
	 M234.8023682,52.9606323V42.6970215c4.7752075,0.3953857,5.2049561,2.8154297,5.2049561,5.2880249
	C240.0073242,49.510437,240.0073242,52.5788574,234.8023682,52.9606323z M417.8109131,17.7966309h-2.8113403l-0.7168579,2.718811
	l-4.0390015,15.3242188l-4.038147-15.3242188l-0.7167969-2.718811h-2.8114014h-20.7276001h-5.2764282l1.8624268,4.9365845
	l17.6416016,46.7538452v30.0429688v3.6483765h3.6483765h20.836792h3.6483765v-3.6483765V69.4870605l17.6416016-46.7538452
	l1.8624268-4.9365845h-5.2764282H417.8109131z M420.6625366,68.8210449v30.7089844h-20.836792V68.8210449l-17.8759766-47.3760376
	h20.7276001l7.4569702,28.2950439h0.2196045l7.4569702-28.2950439h20.7276001L420.6625366,68.8210449z M182.5395508,49.3328247
	c-2.1270142-0.8339844-4.1367798-1.6221924-5.343811-2.4609985c-0.9569702-0.664978-0.9569702-1.0166016-0.9569702-1.2998047
	c0-1.2686157,2.7167969-2.053772,5.234375-2.053772c3.4130249,0,7.3583984,1.6055908,11.4091797,4.6445923l5.8378296,4.3779907
	v-7.2979736v-21.055603v-1.7919922l-1.4169922-1.0956421c-3.3807983-2.6123657-12.3876343-4.819397-19.6688232-4.819397
	c-10.4053955,0-18.8739624,3.1063843-24.4893799,8.9833984c-4.664978,4.8828125-7.2341919,11.5176392-7.2341919,18.6826172
	c0,8.1826172,2.3250122,14.5321655,7.1091919,19.4111938c4.0020142,4.0809937,8.9727783,6.2890015,12.9667969,8.0623779
	c3.069397,1.3634033,6.2442017,2.7734375,6.2442017,4.0020142c0,0.5897827-0.1533813,0.781189-0.5214233,1.0136108
	c-0.484375,0.3065796-1.6983643,0.8203735-4.3837891,0.8203735c-5.7235718,0-11.5869751-4.1953735-13.8417969-6
	l-5.9277954-4.7411499v7.5907593v22.2636108v2.1309814l1.8554077,1.046814
	c5.6641846,3.1934204,12.2774048,4.7460327,20.2177734,4.7460327c10.8848267,0,19.7130127-3.2850342,25.5303955-9.5038452
	c4.7714233-5.0996094,7.3994141-12.0175781,7.3994141-19.4765625c0-8.0751953-2.319397-14.234436-7.0908203-18.8300171
	C191.4789429,52.838623,186.5219727,50.8952637,182.5395508,49.3328247z M169.6293335,100.8444214
	c-8.3357544,0-14.1473999-1.8631592-18.4248047-4.2753906V74.3054199c3.2900391,2.6328125,9.6504517,6.7988281,16.1212158,6.7988281
	c5.4833984,0,8.5535889-1.8632202,8.5535889-5.4824219c0-9.5419922-26.3191528-5.484375-26.3191528-31.4755859
	c0-11.0762329,7.2371826-24.0166016,28.0741577-24.0166016c7.0194092,0,15.0253906,2.1934204,17.437439,4.0576172v21.055603
	c-4.3866577-3.2890015-9.1026001-5.3730469-13.5986328-5.3730469c-4.7158203,0-8.8828125,1.8641968-8.8828125,5.7022095
	c0,9.8699951,26.3204346,4.2774048,26.3204346,29.9404297C198.9107666,87.026062,191.5629272,100.8444214,169.6293335,100.8444214z
	 M51.0767822,16.4802246c-11.0606079,0-20.1378174,4.6152344-26.2530518,13.3455811
	c-5.5879517,7.9796143-8.5419922,19.2648315-8.5419922,32.6358032c0,12.8476563,2.7001953,22.9980469,8.0264282,30.1680298
	c2.8720093,3.8651733,6.5009766,6.8359985,10.7869873,8.828186c4.3369751,2.0136108,9.382019,3.0350342,14.9942017,3.0350342
	c6.7988281,0,13.9346313-1.4432373,17.1953735-2.8026123l2.2450562-0.9356079v-2.4315796V77.0476074v-6.5507813
	l-5.5692139,3.4472046c-4.2560425,2.6348267-6.3184204,3.5117798-10.1426392,3.5117798
	c-2.515564,0-4.303772-1.015564-5.6279907-3.1933594c-1.6073608-2.6464233-2.4580078-6.9180298-2.4580078-12.3496094
	c0-6.6348267,1.0772095-11.5527954,3.2022095-14.6182251c1.7860107-2.5761719,4.2781982-3.7763672,7.8446045-3.7763672
	c2.0098267,0,4.4962158,0.9718018,7.0029907,2.7354126l5.7480469,4.0449829v-7.0294189V23.2000122v-2.5166016l-2.352417-0.8945923
	C61.480957,17.6248169,55.9135742,16.4802246,51.0767822,16.4802246z M65.8813477,43.2692261
	c-2.9609985-2.0839844-6.1416016-3.3994141-9.1026001-3.3994141c-9.321167,0-14.6951904,6.9092407-14.6951904,22.0430298
	c0,12.3925781,4.0576172,19.1914063,11.734375,19.1914063c4.7158203,0,7.4570313-1.2050171,12.0634155-4.0566406v21.2754517
	c-2.6317749,1.0955811-9.321167,2.5213623-15.7919922,2.5213623c-20.7276001,0-30.1591797-14.9140015-30.1591797-38.3828125
	c0-25.0047607,10.6377563-42.3319702,31.1466064-42.3319702c4.1669922,0,9.321167,0.9863892,14.8045654,3.0703735V43.2692261z
	 M893.0493164,79.1394043h-18.2052002V20.1374512h-22.5780029v79.8241577h40.7832031V79.1394043z M843.1489258,76.3894043
	c0-11.984375-6.8222046-16.7383423-12.0996094-18.6201782c6.3984375-2.8662109,10.015625-8.5996094,10.015625-16.0341797
	c0-5.9451904-2.1328125-11.2930298-6.0057983-15.0596313c-4.4003906-4.2771606-11.0059814-6.5379639-19.0996094-6.5379639
	h-31.0294189v79.8241577h30.2618408C834.5043335,99.9616089,843.1489258,88.1218262,843.1489258,76.3894043z
	 M807.5063477,39.4246216h2.75c7.2871704,0,8.781189,2.2822266,8.781189,5.7098389
	c0,3.5917969-2.2791748,5.4903564-6.5878296,5.4903564h-4.9433594V39.4246216z M813.5453491,80.0164185h-6.0390015V67.4998169
	h4.8339844c5.4511719,0,7.5742188,1.7236328,7.5742188,6.1494141
	C819.9145508,76.026062,819.0863037,80.0164185,813.5453491,80.0164185z M479.4369507,51.4822388
	c-5-1.9609985-8.0654297-3.3173828-8.0654297-6.3477783c0-3.5674438,4.3164063-4.8330078,8.0137939-4.8330078
	c4.0194092,0,8.5410156,1.7987671,13.0760498,5.2001953l1.3925781,1.0440063V23.3220215l-0.3378296-0.2617798
	c-2.5897827-2.0009766-10.8241577-4.2391968-17.9697876-4.2391968c-21.3641968,0-28.9451904,13.4071655-28.9451904,24.8875732
	c0,16.7510376,10.6494141,21.4805908,18.4248047,24.9346313c4.4110107,1.9589844,7.8953857,3.5059814,7.8953857,6.5410156
	c0,3.812561-4.1785889,4.6133423-7.6835938,4.6133423c-6.6033936,0-13.0935669-4.6229858-15.5780029-6.609375l-1.413208-1.1307983
	v24.5800171l0.4424438,0.25c5.2363892,2.9549561,11.4024048,4.390564,18.8515625,4.390564
	c22.2548218,0,30.1514282-14.1171875,30.1514282-26.2049561C497.6919556,58.6414185,487.1411133,54.5036621,479.4369507,51.4822388z
	 M674.7641602,20.1374512h-33.6758423l-15.5839844,79.8241577h23.5196533l1.9745483-13.1601563h13.8554077l1.9727783,13.1601563
	h23.5214233l-15.4472046-79.1209717L674.7641602,20.1374512z M653.8949585,67.5144043l4.0313721-26.3379517l4.031189,26.3379517
	H653.8949585z M506.5845337,62.0232544c0,23.4696045,9.4296265,38.3837891,30.1582031,38.3837891
	c6.4705811,0,13.1599731-1.4257813,15.7910156-2.5216064V76.6100464c-4.6055908,2.8496094-7.3477783,4.0567627-12.0626221,4.0567627
	c-7.6776123,0-11.734375-6.7989502-11.734375-19.1915894c0-15.1345825,5.37323-22.0437622,14.6953735-22.0437622
	c2.9609985,0,6.140625,1.3164063,9.1016235,3.399353V22.7624512c-5.4824219-2.0840454-10.6368408-3.071228-14.8048096-3.071228
	C517.2211304,19.6912231,506.5845337,37.0192261,506.5845337,62.0232544z M609.1625366,66.425415
	c7.2208252-3.3407593,11.0314331-10.3778076,11.0314331-20.4140015c0-7.2255859-2.0020142-13.3661499-5.7912598-17.7587891
	c-4.6443481-5.3847656-11.8085938-8.1151733-21.2909546-8.1151733h-30.5897827v79.8241577h22.578186V72.3250122h4.0175781
	l10.7479858,27.6365967h23.3984375L609.1625366,66.425415z M587.9575195,54.7926636
	c-0.9863892,0-1.9277954-0.0654297-2.8573608-0.1992188V39.4246216h2.4197998c4.0059814,0,8.7793579,1.2761841,8.7793579,7.3554077
	C596.2993164,52.6940308,591.8051147,54.7926636,587.9575195,54.7926636z M923.8657227,80.0164185V69.4734497h16.4492188V49.5280151
	h-16.4492188v-9.4451904h18.7537842V20.1374512h-41.3319702v79.8241577h41.5507813V80.0164185H923.8657227z M735.4613647,65.8668213
	l-7.1504517-45.7293701h-31.1169434v79.8241577h20.8241577v-51.586792l9.2578125,51.586792h15.2675781l10.3632202-55.0057983
	v55.0057983h20.8222046V20.1374512h-31.1152344L735.4613647,65.8668213z M44.0073853,118.5652466l-3.3936157,9.8533936
	c-0.9492188,2.8828125-1.7880249,5.9102173-2.4451904,8.5742188h-0.109436
	c-0.6201782-2.7362061-1.3867798-5.65625-2.2617798-8.5390015l-3.211792-9.8886108h-5.9111938l-1.6416016,24.5935669h4.196167
	l0.5469971-9.8885498c0.1826172-3.3554077,0.3280029-7.2598267,0.4384155-10.4706421h0.0722046
	c0.6574097,3.0643921,1.5332031,6.421814,2.4815674,9.5585938l3.2842407,10.5096436h3.4295654l3.6122437-10.6542358
	c1.0947876-3.1015625,2.1171875-6.421814,2.9199829-9.4140015h0.109375
	c-0.0371704,3.3201904,0.1456299,7.1503906,0.2919922,10.3259888l0.4736328,10.0332031h4.3789673l-1.4229736-24.5935669H44.0073853z
	 M875.7231445,122.3250122h7.0057983v20.8338013h4.4884033v-20.8338013h7.0780029v-3.7597656h-18.5722046V122.3250122z
	 M673.5493164,118.5652466l-7.8807983,24.5935669h4.6328125l2.1171875-6.9685669h7.7714233l2.2266235,6.9685669h4.8533936
	l-7.9922485-24.5935669H673.5493164z M673.1489258,132.7976074l1.8964233-6.0585938
	c0.4024048-1.4589844,0.8027954-3.1737671,1.1679688-4.5975952h0.0724487
	c0.3651733,1.4238281,0.767395,3.1014404,1.2419434,4.5975952l1.9336548,6.0585938H673.1489258z M85.8197632,143.1588135h4.4884033
	v-24.5935669h-4.4884033V143.1588135z M935.4517212,128.8562622c-3.2832031-1.2774048-4.7072144-2.1524048-4.7072144-4.0508423
	c0-1.4589844,1.2052002-2.9552002,4.0508423-2.9552002c2.2987671,0,4.0137939,0.6934204,4.9257813,1.1680298l1.0585938-3.6132202
	c-1.2772217-0.656189-3.2108154-1.2401733-5.875-1.2401733c-5.3632202,0-8.7205811,3.0271606-8.7205811,7.0780029
	c0,3.5409546,2.5917969,5.6933594,6.6776123,7.1524048c3.1015625,1.1307983,4.3417969,2.2265625,4.3417969,4.0879517
	c0,2.0057983-1.6054077,3.3554077-4.4510498,3.3554077c-2.2989502,0-4.5253906-0.7285767-5.9473877-1.5683594l-1.0213623,3.7225952
	c1.3495483,0.8379517,4.0507813,1.5683594,6.6775513,1.5683594c6.3126831,0,9.3048096-3.4295654,9.3048096-7.4082031
	C941.7661133,132.6140137,939.7211304,130.4616089,935.4517212,128.8562622z M143.5073242,118.5652466h-5.1455688
	l-2.6268311,5.0722046c-0.7666016,1.4959717-1.2773438,2.5917969-1.9345703,4.1229858h-0.109375
	c-0.6202393-1.3865967-1.2042236-2.5897827-2.0068359-4.1229858l-2.663208-5.0722046h-5.1815796l7.0419922,12.1521606
	l-7.2977905,12.4414063h5.1453857l2.444397-4.8885498c0.9854126-1.8984375,1.6426392-3.2109985,2.2255859-4.6348267h0.0732422
	c0.7295532,1.4238281,1.4227905,2.7363892,2.4813843,4.6348267l2.6270142,4.8885498h5.2177734l-7.4793701-12.5877686
	L143.5073242,118.5652466z M730.9439697,133.1256104h4.3417358v6.1661987
	c-0.5839844,0.2557983-1.7519531,0.4746094-3.3925781,0.4746094c-5.109375,0-8.5391846-3.3203735-8.5391846-8.9043579
	c0-5.7286377,3.6856079-8.8300171,8.9395752-8.8300171c2.5917969,0,4.2324219,0.4373779,5.5840454,1.0585938l0.9841919-3.6134033
	c-1.1307983-0.546814-3.50177-1.1660156-6.53125-1.1660156c-8.1365356,0-13.6463623,4.9609985-13.6835938,12.7716064
	c0,3.7205811,1.2402344,6.9686279,3.4298096,9.0488281c2.3358154,2.2246094,5.5096436,3.2832031,9.6697998,3.2832031
	c3.2479858,0,6.3126221-0.8027954,7.8810425-1.3868408v-12.4414063h-8.6835938V133.1256104z M413.6167603,122.3250122h7.0057983
	v20.8338013h4.4881592v-20.8338013h7.0792236v-3.7597656h-18.5731812V122.3250122z M476.0835571,121.885437
	c2.0067749,0,3.6483765,0.4395752,4.8164063,0.9492188l0.9481812-3.5762329
	c-0.9121704-0.4725952-2.9912109-1.0935669-5.9472046-1.0935669c-7.5166016,0-13.1729736,4.8885498-13.1729736,12.9901733
	c0,7.515625,4.7442017,12.406189,12.5527954,12.406189c2.9912109,0,5.3272095-0.5839844,6.3858032-1.0955811l-0.7305908-3.5391846
	c-1.2040405,0.5117798-3.1014404,0.8769531-4.8886108,0.8769531c-5.4373779,0-8.5751953-3.4315796-8.5751953-8.8671875
	C467.472168,125.024231,471.0845337,121.885437,476.0835571,121.885437z M625.8989258,118.5652466l-3.3945923,9.8533936
	c-0.9472046,2.8828125-1.7869873,5.9102173-2.4434204,8.5742188h-0.1091919
	c-0.6211548-2.7362061-1.3867798-5.65625-2.2637939-8.5390015l-3.2108154-9.8886108h-5.9101563l-1.6426392,24.5935669h4.1972046
	l0.5469971-9.8885498c0.1816406-3.3554077,0.3280029-7.2598267,0.437439-10.4706421h0.0722046
	c0.6582031,3.0643921,1.5332031,6.421814,2.482605,9.5585938l3.2832031,10.5096436h3.4295654l3.6132202-10.6542358
	c1.093811-3.1015625,2.1171875-6.421814,2.9199829-9.4140015h0.109375
	c-0.0371704,3.3201904,0.1446533,7.1503906,0.2910156,10.3259888l0.4746094,10.0332031h4.3790283l-1.4240112-24.5935669H625.8989258
	z M530.3755493,128.4186401h-10.3984375v-9.8533936h-4.4883423v24.5935669h4.4883423v-10.8357544h10.3984375v10.8357544h4.4882202
	v-24.5935669h-4.4882202V128.4186401z M833.3617554,132.2488403h9.2695923v-3.6486206h-9.2695923v-6.3496094h9.8164063v-3.6853638
	h-14.3046265v24.5935669h14.8516235v-3.6853638h-10.3634033V132.2488403z M324.0795288,118.5652466l-3.3935547,9.8533936
	c-0.9492188,2.8828125-1.7880249,5.9102173-2.4452515,8.5742188h-0.109375
	c-0.6201782-2.7362061-1.3858032-5.65625-2.2617798-8.5390015l-3.2108154-9.8886108h-5.9122314l-1.6416016,24.5935669h4.1964111
	l0.5477905-9.8885498c0.1816406-3.3554077,0.3282471-7.2598267,0.437439-10.4706421h0.0723877
	c0.6572266,3.0643921,1.5332031,6.421814,2.4813843,9.5585938l3.2842407,10.5096436h3.430603l3.6123657-10.6542358
	c1.0946045-3.1015625,2.1162109-6.421814,2.9188232-9.4140015h0.109375
	c-0.0369873,3.3201904,0.1456299,7.1503906,0.2919922,10.3259888l0.4746094,10.0332031h4.3779907l-1.4227905-24.5935669H324.0795288
	z M789.5415039,127.1414185c0,3.7578125,0.0742188,6.9316406,0.4024658,10.2167969h-0.0744629
	c-1.1307983-2.6641846-2.5897827-5.5097656-4.1951904-8.2461548l-6.3496094-10.546814h-5.1445923v24.5935669h4.1602173v-8.7927856
	c0-4.0507813-0.0742188-7.2990112-0.2557983-10.4727783l0.1464233-0.0369873
	c1.203186,2.7733765,2.8085938,5.765564,4.3770142,8.4667969l6.4237671,10.8357544h4.6699829v-24.5935669h-4.1602173V127.1414185z
	 M235.0523682,129.2936401h-4.0148315c-0.4003906,2.5897827-1.1669922,4.9257813-2.2255859,6.5313721
	c-1.3496094-1.4589844-3.2470093-3.6485596-4.961792-5.6192017l0.0360107-0.109375
	c3.5761719-1.8242188,5.0723877-3.9044189,5.0723877-6.4589844c0-3.3574219-2.6641846-5.5098267-6.1300049-5.5098267
	c-4.5253906,0-6.8602295,3.2479858-6.8602295,6.3126221c0,1.75177,0.8026123,3.5390015,1.9696045,4.9257813v0.1091919
	c-2.8095703,1.4962158-4.7431641,3.8322144-4.7431641,7.1171875c0,3.5744019,2.7001953,6.968811,8.1005859,6.968811
	c2.8095703,0,5.1083984-0.875,6.9326172-2.4451904c0.7666016,0.8026123,1.3145752,1.4238281,1.9345703,2.0427856h5.2540283
	c-1.4962158-1.6054077-2.8096313-3.1013794-4.1964111-4.6327515
	C233.2641602,136.2272339,234.3949585,133.088623,235.0523682,129.2936401z M222.6089478,121.010437
	c1.7147827,0,2.4813843,1.4589844,2.4813843,2.7733765c0,1.7150269-1.2041626,2.8458252-3.2841797,4.1602173
	c-1.0947876-1.2401733-1.7880249-2.4451904-1.7880249-3.9414063
	C220.0181274,122.4342651,220.9311523,121.010437,222.6089478,121.010437z M221.9887695,140.2410278
	c-2.7362061,0-4.5244141-1.9335938-4.5244141-4.3417969c0-2.0802002,1.3496094-3.3574219,2.4813843-4.1602173
	c2.335022,2.6620483,4.6699829,5.2910156,6.1660156,6.8222046
	C225.1635742,139.510437,223.7407227,140.2410278,221.9887695,140.2410278z M371.730957,118.5652466l-7.8818359,24.5935669
	h4.6338501l2.1171875-6.9685669h7.7713623l2.225647,6.9685669h4.8535767l-7.9912109-24.5935669H371.730957z
	 M371.3295288,132.7976074l1.897644-6.0585938c0.4011841-1.4589844,0.8025513-3.1737671,1.1669922-4.5975952h0.0731812
	c0.3651733,1.4238281,0.7666016,3.1014404,1.2412109,4.5975952l1.9335938,6.0585938H371.3295288z"/>
</svg>
