<?xml version="1.0" encoding="utf-8"?>
<!-- Generator: Adobe Illustrator 15.1.0, SVG Export Plug-In . SVG Version: 6.00 Build 0)  -->
<!DOCTYPE svg PUBLIC "-//W3C//DTD SVG 1.1//EN" "http://www.w3.org/Graphics/SVG/1.1/DTD/svg11.dtd">
<svg version="1.1" id="Layer_1" xmlns="http://www.w3.org/2000/svg" xmlns:xlink="http://www.w3.org/1999/xlink" x="0px" y="0px"
	 width="672px" height="96px" viewBox="0 0 672 96" enable-background="new 0 0 672 96" xml:space="preserve">
<g>
	<path d="M192,96H96V0h96V96z M102,90h84V6h-84V90z"/>
</g>
<polygon fill="#990000" points="564.7,26.109 549.892,11.3 528,33.191 506.108,11.3 491.3,26.109 513.191,48 491.3,69.892 
	506.108,84.7 528,62.809 549.892,84.7 564.7,69.892 542.809,48 "/>
<path fill="#FF9900" d="M398.401,85.751h25.8v-19.32h-25.8V85.751z M397.201,7.85V25.3l5.398,35.524h16.802L424.8,25.3V7.85H397.201
	z"/>
<path fill="#FF9900" d="M440.399,85.751h25.8v-19.32h-25.8V85.751z M439.199,7.85V25.3l5.398,35.524h16.802l5.398-35.524V7.85
	H439.199z"/>
<path d="M123.6,39.6c6,0.601,4.8,13.801,7.8,15c3,1.2,34.2-32.398,36.6-32.398s3.6,2.4,3,9s-36,43.2-43.8,43.2
	c-7.8,0-8.4-4.802-9.6-10.2C115.8,59.4,118.2,39,123.6,39.6z"/>
<g>
	<path fill="#336699" d="M315.702,85.815c-11.916,0-13.591-7.7-15.067-14.493l-0.219-1.001c-2.068-6.021-0.323-25.583,4.708-32.845
		c1.928-2.783,4.021-3.367,5.438-3.367c0.193,0,0.39,0.012,0.588,0.033c6.568,0.657,8.26,8.584,9.492,14.372
		c0.377,1.762,0.908,4.26,1.446,5.445c4.295-2.476,17.901-15.771,27.115-24.772c16.545-16.168,19.125-18.402,21.235-18.402
		c1.765,0,3.291,0.65,4.415,1.882c2.059,2.254,2.705,6.237,2.101,12.918c-0.697,7.66-23.838,31.177-26.475,33.833
		C342.604,67.355,323.446,85.815,315.702,85.815z"/>
</g>
<g>
	<path d="M96,96H0V0h96V96z M6,90h84V6H6V90z"/>
</g>
<path fill="#3C3D3D" d="M240,24.075c-18,0-31.375,14.125-31.375,30.625c0,14,12.775,31.774,31.375,31.774
	c-11.4,0-24.667-12.129-24.667-27.899c0-16,13.267-24.5,24.667-24.5v2v12.367l33-18.867l-33-19.45V24.075z"/>
<polygon fill="#1A1818" points="624,9.114 637.93,31.5 663.525,37.83 646.539,57.996 648.428,84.295 624,74.371 599.572,84.295 
	601.461,57.996 584.475,37.83 610.07,31.5 "/>
</svg>
