<?xml version="1.0" encoding="utf-8"?>
<!-- Generator: Adobe Illustrator 15.1.0, SVG Export Plug-In . SVG Version: 6.00 Build 0)  -->
<!DOCTYPE svg PUBLIC "-//W3C//DTD SVG 1.1//EN" "http://www.w3.org/Graphics/SVG/1.1/DTD/svg11.dtd">
<svg version="1.1" id="Layer_1" xmlns="http://www.w3.org/2000/svg" xmlns:xlink="http://www.w3.org/1999/xlink" x="0px" y="0px"
	 width="576px" height="96px" viewBox="0 348 576 96" enable-background="new 0 348 576 96" xml:space="preserve">
<g>
	<path d="M192,444H96v-96h96V444z M102,438h84v-84h-84V438z"/>
</g>
<polygon fill="#990000" points="564.7,374.109 549.892,359.3 528,381.191 506.108,359.3 491.3,374.109 513.191,396 491.3,417.892 
	506.108,432.7 528,410.809 549.892,432.7 564.7,417.892 542.809,396 "/>
<path fill="#FF9900" d="M398.401,433.751h25.8v-19.32h-25.8V433.751z M397.201,355.85v17.45l5.399,35.524h16.801l5.399-35.524
	v-17.45H397.201z"/>
<path fill="#FF9900" d="M440.399,433.751h25.8v-19.32h-25.8V433.751z M439.199,355.85v17.45l5.399,35.524h16.801l5.399-35.524
	v-17.45H439.199z"/>
<path d="M123.6,387.6c6,0.6,4.8,13.8,7.8,15c3,1.2,34.2-32.399,36.6-32.399s3.6,2.4,3,9c-0.6,6.6-36,43.2-43.8,43.2
	c-7.8,0-8.4-4.801-9.6-10.2C115.8,407.4,118.2,387,123.6,387.6z"/>
<g>
	<path fill="#336699" d="M315.702,433.815c-11.916,0-13.59-7.7-15.067-14.493l-0.219-1.001c-2.069-6.021-0.323-25.582,4.708-32.844
		c1.928-2.783,4.021-3.367,5.438-3.367c0.194,0,0.39,0.011,0.588,0.033c6.569,0.657,8.26,8.584,9.493,14.372
		c0.376,1.761,0.908,4.259,1.446,5.445c4.295-2.476,17.901-15.771,27.115-24.773c16.545-16.167,19.125-18.402,21.235-18.402
		c1.765,0,3.291,0.651,4.415,1.882c2.059,2.254,2.706,6.238,2.101,12.918c-0.697,7.66-23.838,31.177-26.475,33.833
		C342.604,415.355,323.446,433.815,315.702,433.815z"/>
</g>
<g>
	<path d="M96,444H0v-96h96V444z M6,438h84v-84H6V438z"/>
</g>
<path fill="#3C3D3D" d="M240,372.075c-18,0-31.375,14.125-31.375,30.625c0,14,12.775,31.775,31.375,31.775
	c-11.4,0-24.667-12.129-24.667-27.9c0-16,13.267-24.5,24.667-24.5v2v12.367l33-18.867l-33-19.45V372.075z"/>
</svg>
