<?xml version="1.0" encoding="utf-8"?>
<!-- Generator: Adobe Illustrator 21.0.0, SVG Export Plug-In . SVG Version: 6.00 Build 0)  -->
<svg version="1.1" id="Layer_1" xmlns="http://www.w3.org/2000/svg" xmlns:xlink="http://www.w3.org/1999/xlink" x="0px" y="0px"
	 viewBox="0 0 96 16" style="enable-background:new 0 0 96 16;" xml:space="preserve">
<style type="text/css">
	.st0{fill:#771515;}
	.st1{fill:#EC8A28;}
	.st2{fill:#2F5485;}
</style>
<g>
	<path d="M32,16H16V0h16V16z M17,15h14V1H17V15z"/>
</g>
<polygon class="st0" points="93.7,4.6 91.4,2.3 88,5.7 84.6,2.3 82.3,4.6 85.7,8 82.3,11.4 84.6,13.7 88,10.3 91.4,13.7 93.7,11.4 
	90.3,8 "/>
<path class="st1" d="M69.9,14.4h4.3v-3.1h-4.3V14.4z M69.7,1.9v2.8l0.9,5.7h2.8l0.9-5.7V1.9H69.7z"/>
<g>
	<path class="st2" d="M59.9,8.7c0-0.9-0.3-4.1-1.3-5.1c-1.2-1.2-3.1-1.1-4.6-0.1C51.4,5.4,50,8.7,50,8.7s3.3-3.7,5-3.4
		c1.4,0.3,1.2,2.2,1.2,3.4H54l4.1,5.5l4.1-5.5H59.9z"/>
</g>
<path d="M45.5,5.3L40,1.6v1.8c0,0,0,0,0,0c-3,0-5.5,2.4-5.5,5.5c0,3,2.4,5.5,5.5,5.5c-1.9,0-3.5-1.6-3.5-3.6c0-2,1.6-3.6,3.5-3.6
	c0,0,0,0,0,0v1.8L45.5,5.3z"/>
<path d="M20.6,6.6c1,0.1,0.8,2.3,1.3,2.5c0.5,0.2,5.7-5.4,6.1-5.4s0.6,0.4,0.5,1.5s-6,7.2-7.3,7.2s-1.4-0.8-1.6-1.7
	C19.3,9.9,19.7,6.5,20.6,6.6z"/>
<g>
	<path d="M16,16H0V0h16V16z M1,15h14V1H1V15z"/>
</g>
</svg>
